# xmcd CD database file
# Copyright (C) 1996 Ti Kan
#
# Track frame offsets:
# 	162
# 	19250
# 	37180
# 	54675
# 	73885
# 	93612
# 	116880
# 	137802
# 	153030
# 	166815
#
# Disc length: 2393 seconds
#
# Revision: 1
# Processed by: cddbd v1.4b41PL1 Copyright (c) Steve Scherf et al.
# Submitted via: DiscPlay 3.4.1
#
DISCID=8e09570a
DTITLE=Ruth Brown - Brown Black and Beautiful
DYEAR=1900
DGENRE=
TTITLE0=I Want To Sleep With You
TTITLE1=What Color Is Blue
TTITLE2=Brown Sugar
TTITLE3=Lots More Of Me Leaving (Less Of Me Coming Home)
TTITLE4=Ain't No Piece Of Cake
TTITLE5=Stop Knocking
TTITLE6=Old Fashioned Goodtime Loving You
TTITLE7=Sugar Babe
TTITLE8=My Ol' Bed
TTITLE9=I Love My Man
EXTD=
EXTT0=
EXTT1=
EXTT2=
EXTT3=
EXTT4=
EXTT5=
EXTT6=
EXTT7=
EXTT8=
EXTT9=
PLAYORDER=
